<svg xmlns="http://www.w3.org/2000/svg" viewBox="0 0 64 58" width="64" height="58">
	<style>
		tspan { white-space:pre }
		.shp0 { fill: #222222 } 
	</style>
	<g id="Header ">
		<g id="Live cart">
			<g id="Icon">
				<path id="Forma 1" class="shp0" d="M2.37 4.73L9.15 4.73L18.82 39.64C19.1 40.66 20.04 41.37 21.11 41.37L50.82 41.37C51.76 41.37 52.59 40.82 52.99 39.95L63.8 15.13C64.11 14.38 64.03 13.55 63.6 12.88C63.17 12.21 62.42 11.82 61.63 11.82L28.8 11.82C27.5 11.82 26.43 12.88 26.43 14.18C26.43 15.48 27.5 16.55 28.8 16.55L58 16.55L49.24 36.64L22.88 36.64L13.22 1.73C12.94 0.71 11.99 0 10.93 0L2.37 0C1.07 0 0 1.06 0 2.36C0 3.66 1.07 4.73 2.37 4.73ZM18.86 58C21.82 58 24.22 55.6 24.22 52.64C24.22 49.69 21.82 47.28 18.86 47.28C15.9 47.28 13.49 49.69 13.49 52.64C13.49 55.6 15.9 58 18.86 58ZM52.4 58C52.51 58 52.67 58 52.79 58C54.21 57.88 55.51 57.25 56.46 56.15C57.41 55.08 57.84 53.7 57.76 52.25C57.56 49.33 55 47.09 52.04 47.28C49.08 47.48 46.87 50.08 47.07 53C47.27 55.79 49.59 58 52.4 58Z" />
			</g>
		</g>
	</g>
</svg>