<svg xmlns="http://www.w3.org/2000/svg" viewBox="0 0 90 64" width="90" height="64">
	<style>
		tspan { white-space:pre }
		.shp0 { fill: #f16d7f } 
	</style>
	<g id="Feature">
		<g id="Feature box">
			<path id="Forma 1" class="shp0" d="M22.22 50.83C21.2 50.83 20.36 51.68 20.36 52.71C20.36 53.71 19.56 54.52 18.58 54.52C17.59 54.52 16.79 53.71 16.79 52.71C16.79 51.72 17.59 50.91 18.58 50.91C19.6 50.91 20.44 50.07 20.44 49.03C20.44 47.99 19.6 47.15 18.58 47.15C15.55 47.15 13.08 49.64 13.08 52.71C13.08 55.78 15.55 58.28 18.58 58.28C21.61 58.28 24.08 55.78 24.08 52.71C24.08 51.68 23.25 50.83 22.22 50.83ZM75.16 50.83C74.14 50.83 73.31 51.68 73.31 52.71C73.31 53.71 72.51 54.52 71.52 54.52C70.54 54.52 69.74 53.71 69.74 52.71C69.74 51.72 70.54 50.91 71.52 50.91C72.55 50.91 73.38 50.07 73.38 49.03C73.38 47.99 72.55 47.15 71.52 47.15C68.49 47.15 66.02 49.64 66.02 52.71C66.02 55.78 68.49 58.28 71.52 58.28C74.55 58.28 77.02 55.78 77.02 52.71C77.02 51.68 76.19 50.83 75.16 50.83ZM89.74 26.79L82.62 14.58C80.18 10.46 77.88 8.05 73.26 7.64C73.11 7.6 72.95 7.58 72.79 7.58L58.54 7.58L58.54 3.76C58.54 1.69 56.88 0 54.83 0L3.71 0C1.67 0 0 1.69 0 3.76L0 50.83C0 52.91 1.67 54.59 3.71 54.59L7.59 54.59C8.48 59.93 13.07 64 18.58 64C24.09 64 28.68 59.93 29.57 54.59L60.53 54.59C61.42 59.93 66.01 64 71.52 64C77.04 64 81.62 59.93 82.51 54.59L88.14 54.59C89.17 54.59 90 53.75 90 52.71L90 27.75C90 27.41 89.91 27.08 89.74 26.79ZM82.67 34C82.67 32.96 83.5 32.12 84.53 32.12L86.29 32.12L86.29 35.82L82.67 35.82L82.67 34ZM85.17 26.35L68.11 26.35C67.99 26.33 67.86 26.31 67.73 26.31C66.69 26.31 65.84 25.45 65.84 24.39L65.84 16.86L79.64 16.86L85.17 26.35ZM3.71 3.76L54.83 3.76L54.83 50.83L29.57 50.83C28.68 45.5 24.09 41.43 18.58 41.43C13.07 41.43 8.48 45.5 7.59 50.83L3.71 50.83L3.71 3.76ZM18.58 60.24C14.48 60.24 11.15 56.86 11.15 52.71C11.15 48.56 14.48 45.19 18.58 45.19C22.68 45.19 26.01 48.56 26.01 52.71C26.01 56.86 22.68 60.24 18.58 60.24ZM71.52 60.24C67.42 60.24 64.09 56.86 64.09 52.71C64.09 48.56 67.42 45.19 71.52 45.19C75.62 45.19 78.96 48.56 78.96 52.71C78.96 56.86 75.62 60.24 71.52 60.24ZM82.51 50.83C81.63 45.5 77.04 41.43 71.52 41.43C66.01 41.43 61.42 45.5 60.53 50.83L58.54 50.83L58.54 11.34L71.79 11.34C74.16 11.34 75.64 11.84 76.95 13.1L63.98 13.1C62.96 13.1 62.12 13.94 62.12 14.98L62.12 24.39C62.12 27.37 64.39 29.82 67.27 30.05C67.42 30.09 67.57 30.11 67.73 30.11L80.49 30.11C79.54 31.12 78.96 32.49 78.96 34L78.96 37.7C78.96 38.73 79.79 39.58 80.81 39.58L86.29 39.58L86.29 50.83L82.51 50.83L82.51 50.83ZM9.36 11.34L49.18 11.34C50.21 11.34 51.04 10.5 51.04 9.46C51.04 8.42 50.21 7.58 49.18 7.58L9.36 7.58C8.34 7.58 7.51 8.42 7.51 9.46C7.51 10.5 8.34 11.34 9.36 11.34Z" />
		</g>
	</g>
</svg>