<svg xmlns="http://www.w3.org/2000/svg" viewBox="0 0 80 80" width="80" height="80">
	<style>
		tspan { white-space:pre }
		.shp0 { fill: #f16d7f } 
	</style>
	<g id="Feature">
		<g id="Feature box">
			<path id="Forma 1" class="shp0" d="M49.57 37C45.78 37 42.65 40.27 42.65 46.13C42.69 51.95 45.78 54.85 49.34 54.85C53 54.85 56.17 51.81 56.17 45.68C56.18 40.13 53.58 37 49.57 37ZM49.43 52.48C47.05 52.48 45.64 49.66 45.69 45.95C45.69 42.28 47.01 39.38 49.43 39.38C52.12 39.38 53.13 42.33 53.13 45.86C53.13 49.71 51.99 52.48 49.43 52.48ZM37.54 33.65C37.54 28.1 34.89 24.96 30.88 24.96C27.09 24.96 23.97 28.23 23.97 34.05C24.01 39.91 27.09 42.82 30.66 42.82C34.37 42.82 37.54 39.77 37.54 33.65ZM27.05 33.92C27.05 30.24 28.33 27.34 30.75 27.34C33.44 27.34 34.45 30.29 34.45 33.83C34.45 37.67 33.31 40.45 30.75 40.45C28.33 40.44 26.96 37.63 27.05 33.92ZM47.23 25.28L30.4 54.77L32.86 54.77L49.7 25.28L47.23 25.28ZM73.17 45.95L79.99 40L73.17 34.06L77.59 26.11L69.17 22.9L70.63 13.89L61.65 13.8L60 4.82L51.52 7.85L46.94 0L40 5.8L33.06 0L28.48 7.85L20 4.82L18.35 13.8L9.36 13.89L10.83 22.9L2.41 26.1L6.83 34.05L0.01 40L6.83 45.94L2.41 53.89L10.83 57.09L9.36 66.11L18.35 66.2L20 75.18L28.48 72.15L33.05 80L40 74.2L46.94 80L51.52 72.15L60 75.18L61.64 66.2L70.63 66.11L69.17 57.1L77.59 53.89L73.17 45.95ZM67.84 53.49L64.92 54.61L65.43 57.73L66.17 62.31L61.61 62.35L58.48 62.38L57.91 65.5L57.08 70.05L52.78 68.51L49.84 67.47L48.26 70.18L45.93 74.17L42.41 71.22L40 69.21L37.59 71.22L34.06 74.17L31.74 70.18L30.15 67.46L27.22 68.51L22.91 70.05L22.08 65.49L21.51 62.38L18.39 62.34L13.82 62.3L14.57 57.72L15.08 54.6L12.16 53.49L7.89 51.86L10.13 47.83L11.66 45.08L9.3 43.01L5.83 40L9.3 36.97L11.67 34.91L10.13 32.16L7.89 28.13L12.16 26.5L15.08 25.39L14.57 22.27L13.83 17.69L18.39 17.65L21.51 17.61L22.08 14.5L22.92 9.94L27.22 11.48L30.16 12.53L31.74 9.81L34.06 5.82L37.59 8.77L40 10.78L42.41 8.77L45.93 5.82L48.26 9.81L49.84 12.53L52.78 11.48L57.08 9.95L57.92 14.5L58.49 17.62L61.61 17.65L66.17 17.7L65.43 22.27L64.92 25.39L67.84 26.5L72.11 28.13L69.87 32.16L68.33 34.92L70.7 36.98L74.17 39.99L70.7 43.02L68.33 45.08L69.86 47.84L72.11 51.86L67.84 53.49Z" />
		</g>
	</g>
</svg>