<svg xmlns="http://www.w3.org/2000/svg" viewBox="0 0 94 70" width="94" height="70">
	<style>
		tspan { white-space:pre }
		.shp0 { fill: #f16d7f } 
	</style>
	<g id="Feature">
		<g id="Feature box">
			<path id="Forma 1" class="shp0" d="M84.75 17.1C79.62 17.1 75.45 21.18 75.45 26.18C75.45 28.87 76.67 31.26 78.57 32.93L66.85 37.04L50.17 17.64C53.76 16.39 56.36 13.06 56.36 9.11C56.36 4.1 52.19 0.02 47.07 0.02C41.95 0.02 37.78 4.1 37.78 9.11C37.78 13.02 40.33 16.33 43.87 17.61L27.16 37.04L15.44 32.93C17.34 31.26 18.56 28.87 18.56 26.18C18.56 21.18 14.39 17.1 9.26 17.1C4.14 17.1 -0.03 21.18 -0.03 26.18C-0.03 30.45 3.01 34.01 7.06 34.99L7.06 59.62C7.06 59.79 7.13 59.94 7.16 60.1C7.1 60.35 7.06 60.61 7.06 60.88C7.06 69.72 42.91 69.98 47 69.98C51.08 69.98 86.93 69.72 86.93 60.88C86.93 60.61 86.9 60.35 86.84 60.1C86.88 59.94 86.93 59.79 86.93 59.62L86.93 34.99C91 34.01 94.03 30.45 94.03 26.18C94.04 21.18 89.87 17.1 84.75 17.1ZM42.3 9.11C42.3 6.54 44.44 4.45 47.07 4.45C49.7 4.45 51.84 6.54 51.84 9.11C51.84 11.69 49.7 13.78 47.07 13.78C44.44 13.78 42.3 11.69 42.3 9.11ZM27.11 41.73C28 42.04 29 41.78 29.61 41.07L47 20.83L64.4 41.07C65.01 41.78 66 42.04 66.89 41.73L82.41 36.27L82.41 56.19C72.64 51.93 50.19 51.78 47 51.78C43.81 51.78 21.35 51.93 11.58 56.19L11.58 36.27L27.11 41.73ZM47.01 65.56C29.59 65.56 18.5 63.53 13.88 61.83C12.97 61.49 12.3 61.16 11.89 60.88C13.33 59.83 18.01 58.41 25.83 57.41C31.33 56.7 38.39 56.2 47.01 56.2C55.63 56.2 62.68 56.7 68.19 57.41C76 58.41 80.68 59.83 82.12 60.88C81.72 61.17 81.04 61.49 80.13 61.83C75.52 63.53 64.43 65.56 47.01 65.56ZM4.5 26.18C4.5 23.61 6.64 21.52 9.27 21.52C11.9 21.52 14.04 23.61 14.04 26.18C14.04 28.76 11.9 30.85 9.27 30.85C6.64 30.85 4.5 28.76 4.5 26.18ZM84.75 30.85C82.12 30.85 79.97 28.76 79.97 26.18C79.97 23.61 82.12 21.52 84.75 21.52C87.37 21.52 89.52 23.61 89.52 26.18C89.52 28.76 87.37 30.85 84.75 30.85Z" />
		</g>
	</g>
</svg>